<svg version="1.1" id="Layer_1" xmlns="http://www.w3.org/2000/svg" xmlns:xlink="http://www.w3.org/1999/xlink" x="0px" y="0px"
	 width="100%" viewBox="0 0 1080 205" enable-background="new 0 0 1080 205" xml:space="preserve">
<path fill="#FFFFFF" opacity="1.000000" stroke="none" 
	d="
M817.000000,206.000000 
	C544.666687,206.000000 272.833344,206.000000 1.000000,206.000000 
	C1.000000,137.666672 1.000000,69.333336 1.000000,1.000000 
	C361.000000,1.000000 721.000000,1.000000 1081.000000,1.000000 
	C1081.000000,69.333336 1081.000000,137.666672 1081.000000,206.000000 
	C993.166687,206.000000 905.333313,206.000000 817.000000,206.000000 
M543.972839,124.790176 
	C547.954102,133.423111 551.868225,142.087891 555.939514,150.678177 
	C558.809631,156.734009 561.893066,162.688721 564.925049,168.776443 
	C570.571045,167.281937 575.786133,165.993362 580.932922,164.473419 
	C582.192566,164.101425 583.761292,163.229950 584.283508,162.150604 
	C588.569824,153.290436 592.642334,144.326859 597.303101,135.027802 
	C604.806580,120.180916 612.309998,105.334030 620.064209,89.991043 
	C615.308777,89.991043 611.467346,90.288818 607.690735,89.920906 
	C602.094727,89.375732 598.689697,90.553978 596.408997,96.684738 
	C592.313599,107.693687 586.839966,118.189888 581.336792,129.302094 
	C578.899658,134.766342 576.462463,140.230591 573.795471,146.210159 
	C570.947693,140.409729 568.391174,135.202560 565.708801,129.301453 
	C560.112549,117.437477 554.583313,105.540833 548.837769,93.749588 
	C548.093628,92.222420 546.301147,90.276917 544.875549,90.174362 
	C539.175232,89.764259 533.428101,90.005074 526.879822,90.005074 
	C532.782532,101.818375 538.332947,112.926567 543.972839,124.790176 
M513.063232,129.724014 
	C514.555176,132.977966 516.047058,136.231918 517.774536,139.999680 
	C511.667725,139.999680 506.070709,139.889496 500.483398,140.074295 
	C499.019440,140.122711 496.795013,140.682434 496.274628,141.700119 
	C493.983704,146.180466 492.188416,150.914261 490.025238,155.998856 
	C499.719849,155.998856 508.721527,156.461792 517.647949,155.841583 
	C523.951111,155.403625 527.624756,157.222809 529.091309,163.451782 
	C529.321716,164.430557 530.714050,165.816193 531.610352,165.847855 
	C537.637146,166.060730 543.675110,165.958679 550.511230,165.958679 
	C544.745361,154.351151 539.434570,143.659836 533.994568,132.245087 
	C527.907837,119.287132 521.640930,106.409218 515.830688,93.328423 
	C513.757751,88.661469 511.285187,87.092407 506.410309,88.963249 
	C502.911804,90.305862 499.134857,90.907288 495.567871,92.096573 
	C494.496368,92.453819 493.351837,93.499931 492.853088,94.527634 
	C487.462891,105.634262 482.194946,116.800232 476.304840,128.321457 
	C471.001373,138.917831 465.697937,149.514206 460.020325,160.858170 
	C454.708893,150.207855 449.907135,140.579559 444.986298,130.227692 
	C438.901947,117.271576 432.783203,104.331421 426.760010,91.346916 
	C425.434113,88.488617 423.925201,87.276260 420.581268,88.601868 
	C416.949402,90.041603 412.943298,90.537224 409.311432,91.976959 
	C407.311768,92.769669 405.025909,94.291367 404.102661,96.110481 
	C398.590759,106.970642 393.438263,118.013206 387.831818,129.629700 
	C382.080231,140.966858 376.328644,152.304016 370.377411,164.034714 
	C364.562958,155.990433 359.135315,148.481323 353.667969,140.917282 
	C363.564362,135.298904 366.735626,131.249542 368.958374,121.079071 
	C368.971130,118.751129 369.017548,116.422813 368.991058,114.095314 
	C368.852417,101.922356 358.673340,90.474274 346.557861,90.126076 
	C329.624542,89.639435 312.666779,90.003365 295.359314,90.003365 
	C293.778870,95.554512 292.245483,100.940399 290.521088,106.997253 
	C293.234009,106.997253 295.031311,106.997200 296.828644,106.997269 
	C311.462463,106.997810 326.096252,106.987312 340.730072,107.005150 
	C345.602875,107.011086 349.298920,109.983307 349.763123,114.697510 
	C349.963989,116.736771 349.206848,118.870361 348.258301,121.273659 
	C346.565491,122.508026 344.901794,124.762009 343.175110,124.811386 
	C331.920105,125.133194 320.651398,124.976761 308.803040,124.976761 
	C308.803040,120.317024 308.803040,116.284973 308.803040,111.885300 
	C302.674652,113.680428 295.101349,113.678604 292.319366,117.328636 
	C289.450226,121.093025 291.234161,128.411407 291.006348,134.175827 
	C290.953766,135.506485 290.999603,136.841003 290.999603,138.173752 
	C290.999695,147.284698 290.999664,156.395660 290.999664,165.609375 
	C297.291168,165.609375 302.995270,165.609375 309.144958,165.609375 
	C309.144958,157.639389 309.144958,150.048019 309.144958,142.012604 
	C316.718903,142.012604 323.845032,141.930496 330.964905,142.103912 
	C331.995026,142.129013 333.283600,143.169342 333.962769,144.098038 
	C338.522949,150.333801 342.811249,156.773743 347.520050,162.891693 
	C348.687805,164.408936 351.058258,165.810867 352.911133,165.857285 
	C363.899384,166.132492 374.899384,165.897812 385.892090,166.061127 
	C388.602509,166.101410 389.997192,165.295563 391.120728,162.792648 
	C395.903564,152.138168 400.909119,141.583649 406.174408,130.345581 
	C409.258759,123.714287 412.343140,117.082993 415.473602,110.352562 
	C418.631104,116.286377 421.756958,122.160721 424.971130,128.790161 
	C426.454254,132.399353 427.937378,136.008560 429.577087,139.998703 
	C423.623596,139.998703 418.001129,139.883835 412.389282,140.077621 
	C410.944763,140.127487 408.766846,140.758102 408.240265,141.791626 
	C405.972290,146.243164 404.193298,150.943832 402.047577,155.998184 
	C412.173645,155.998184 421.516571,156.475037 430.780151,155.823517 
	C436.553497,155.417480 439.556824,157.637619 440.725250,162.674072 
	C441.449768,165.797119 443.224365,166.041245 445.758423,166.023483 
	C455.240387,165.956970 464.727295,166.139633 474.201538,165.861206 
	C475.829529,165.813354 478.170288,164.348602 478.881104,162.900085 
	C483.727142,153.024933 488.225220,142.979019 493.171356,132.346161 
	C496.593414,125.082146 500.015472,117.818123 503.551880,110.311386 
	C506.865692,116.753426 510.014648,122.875008 513.063232,129.724014 
M868.062622,92.043777 
	C854.255188,92.026077 840.447754,91.998703 826.640320,91.996948 
	C822.817749,91.996460 819.762390,92.713997 819.933044,97.714180 
	C820.115173,103.053741 820.839478,103.989670 826.403503,104.003906 
	C835.153137,104.026291 843.902832,104.009850 852.761047,104.009850 
	C852.873901,105.486832 852.989136,106.295639 852.989624,107.104515 
	C852.999939,124.072868 852.976624,141.041275 853.008423,158.009583 
	C853.019287,163.844131 855.166931,166.039856 860.595398,166.001114 
	C865.960693,165.962784 866.997131,164.761993 866.997803,158.536545 
	C866.999512,141.734543 867.002197,124.932518 866.985229,108.130524 
	C866.983032,105.957115 866.614380,103.607063 870.921997,103.969208 
	C878.913818,103.977478 886.907898,103.875542 894.896545,104.039787 
	C898.987549,104.123901 900.963257,102.798660 901.092957,98.364365 
	C901.227844,93.756165 899.148865,92.007446 894.955627,92.017372 
	C886.300964,92.037857 877.646362,92.112450 868.062622,92.043777 
M944.059448,154.046051 
	C937.037842,153.389694 929.966248,153.033386 923.027649,151.878418 
	C921.154663,151.566650 918.624084,149.043030 918.252930,147.167206 
	C917.504150,143.382141 918.029846,139.344955 918.029846,134.836929 
	C925.423096,134.836929 932.204956,134.836929 939.918274,134.969803 
	C953.578491,134.976990 967.242310,134.808899 980.896912,135.090378 
	C985.423645,135.183670 985.415100,131.864746 985.413513,129.527084 
	C985.411865,127.205376 985.486450,123.829933 980.954895,123.920448 
	C966.303162,124.213112 951.643494,124.112556 936.058044,124.049477 
	C930.170349,124.049477 924.282654,124.049477 917.998047,124.049477 
	C917.998047,119.901543 918.219788,116.442291 917.943542,113.023277 
	C917.573486,108.443481 920.480042,106.615852 923.933777,105.104919 
	C924.929016,104.669502 926.007935,104.425392 927.976135,104.021835 
	C933.955566,104.011009 939.936829,103.905418 945.913696,104.024239 
	C949.612732,104.097778 952.029846,103.165596 952.019592,98.849762 
	C952.007935,93.961143 950.506653,91.956581 945.728271,92.068962 
	C938.812073,92.231628 931.905029,92.783035 924.168457,93.049385 
	C909.526611,94.999863 903.099365,100.335762 903.007751,114.400055 
	C902.942749,124.380203 902.967590,134.361145 902.996033,144.341629 
	C903.027710,155.455414 908.829590,162.785004 919.746704,163.870560 
	C929.430054,164.833420 939.235718,164.566498 949.918884,164.973785 
	C960.214355,164.981995 970.512268,164.864044 980.804260,165.057983 
	C985.166504,165.140198 985.044678,162.533966 985.028137,159.522018 
	C985.011841,156.551880 985.245483,153.868958 980.845215,153.947968 
	C968.895081,154.162582 956.940247,154.107300 944.059448,154.046051 
M702.664368,153.790985 
	C703.425720,152.922562 704.246155,152.098679 704.939148,151.178802 
	C711.350098,142.669510 711.507324,132.767334 710.955933,122.822929 
	C710.263245,110.328697 704.705872,100.592651 693.672607,94.300110 
	C680.150391,86.588028 665.439392,86.225288 650.942871,89.339806 
	C637.977356,92.125397 627.495056,99.333092 622.783142,113.703369 
	C622.188904,120.222099 620.946472,126.760162 621.140320,133.255371 
	C621.502136,145.378113 627.241699,155.034210 637.667664,161.136932 
	C653.482788,170.394272 670.413208,170.179123 687.297424,164.667847 
	C693.030090,162.796631 698.814697,159.960587 702.664368,153.790985 
M201.037399,119.930138 
	C201.037399,135.166763 201.037399,150.403397 201.037399,165.978760 
	C221.825378,165.978760 242.019135,167.122391 262.017029,165.634109 
	C279.513733,164.331985 288.068512,147.029846 277.761475,132.310440 
	C275.949036,130.697403 274.136566,129.084366 272.628326,127.742050 
	C274.806915,124.533981 277.768829,121.704994 278.870636,118.277969 
	C283.070374,105.215065 276.627655,91.928520 260.212280,90.398712 
	C242.136047,88.714127 223.781647,90.014488 205.258057,90.014488 
	C203.907089,94.689903 202.376099,99.988373 200.639954,105.996841 
	C203.076874,105.996841 204.860596,105.996635 206.644333,105.996864 
	C220.803177,105.998627 234.962692,105.931602 249.120285,106.065239 
	C251.697433,106.089554 254.616943,106.337234 256.734009,107.579773 
	C258.576569,108.661201 260.924530,111.690720 260.515625,113.148956 
	C259.881836,115.409111 257.161377,118.635857 255.207657,118.720184 
	C243.287842,119.234734 231.334732,118.977287 219.304260,118.977287 
	C219.058670,116.349060 218.865433,114.280937 218.639923,111.867378 
	C213.353088,113.319260 208.444778,114.533577 203.647736,116.090668 
	C202.615173,116.425835 201.984253,117.998375 201.037399,119.930138 
M91.146141,138.037476 
	C87.428307,138.398193 83.710472,138.758896 79.992645,139.119614 
	C79.951965,138.795883 79.911285,138.472168 79.870613,138.148438 
	C89.550758,135.989014 99.230904,133.829590 109.149094,131.617065 
	C108.740204,126.522102 108.103134,121.937088 108.054001,117.345787 
	C107.904121,103.338966 107.991844,103.339241 94.818497,98.890594 
	C93.885498,98.575523 92.965065,98.223297 91.607353,97.296547 
	C86.244347,95.422287 80.881340,93.548035 75.518326,91.673775 
	C75.639626,91.264374 75.760918,90.854973 75.882217,90.445564 
	C84.259689,92.908585 92.637161,95.371597 101.768875,97.990150 
	C103.946419,98.703560 106.266342,99.154343 108.248138,100.228798 
	C109.438629,100.874229 110.771584,102.429970 110.888626,103.684105 
	C111.470375,109.917267 112.608276,116.313515 111.781021,122.412323 
	C110.568939,131.348190 114.508675,135.894623 122.157028,138.612381 
	C123.043129,138.927246 123.898857,139.327576 124.989265,139.779770 
	C128.787888,130.372070 128.056412,120.798988 127.863754,111.310089 
	C127.844872,110.380226 126.827202,109.008072 125.939613,108.635277 
	C121.050613,106.581779 118.443382,103.023499 117.771202,97.802628 
	C117.684982,97.132973 116.462219,96.360039 115.618256,96.079765 
	C111.442184,94.692917 107.216461,93.455551 102.367844,91.819977 
	C100.636322,91.026474 98.904800,90.232979 97.947517,89.794289 
	C97.947517,87.138206 97.947517,85.157135 97.947517,82.911942 
	C99.155411,83.082687 101.255547,83.393532 103.359818,83.673309 
	C105.738312,83.989548 108.788467,85.195030 109.509972,81.725555 
	C110.150940,78.643333 115.324165,74.830956 109.368057,72.794037 
	C110.697350,68.544189 111.921829,64.629402 113.352829,60.054390 
	C105.816261,58.577538 98.921875,57.226528 91.568260,55.284077 
	C85.215057,54.591068 89.004677,51.160690 89.342613,48.925373 
	C98.512138,49.222385 106.342583,57.159012 116.255516,52.391411 
	C114.598709,47.307545 113.268890,42.728214 111.564407,38.292870 
	C111.034996,36.915268 109.709831,35.398563 108.375458,34.843586 
	C93.969765,28.852083 79.422104,28.497568 66.823250,39.884995 
	C65.542656,41.042461 65.347717,43.401093 64.667236,45.155231 
	C68.368225,46.110447 71.174049,46.834625 73.979866,47.558800 
	C73.903038,47.879978 73.826210,48.201157 73.749382,48.522339 
	C70.690643,48.037769 67.631897,47.553200 64.020317,46.981049 
	C62.143711,41.046249 60.064346,34.495823 58.005272,27.939028 
	C57.533558,26.436947 57.131721,24.912928 56.697731,23.399006 
	C55.497360,23.776920 53.712952,23.807854 53.233845,24.614279 
	C52.519737,25.816256 52.220757,27.719418 52.627705,29.055397 
	C54.546509,35.354713 56.857296,41.534027 58.814636,47.822636 
	C59.308369,49.408909 59.567047,51.463711 58.978825,52.916588 
	C57.274757,57.125511 58.665630,60.614155 60.666073,64.149834 
	C61.214844,65.119759 62.088345,66.319839 61.901352,67.226273 
	C60.487019,74.082275 65.128357,76.082817 70.111961,77.979637 
	C71.460876,78.493050 72.667282,79.380875 73.907349,80.860802 
	C67.037231,82.123016 60.118706,84.596710 53.309879,84.324692 
	C45.698074,84.020592 38.311481,83.539482 32.070606,88.149582 
	C26.769650,92.065376 20.953760,96.310104 22.161951,104.792183 
	C22.161951,104.792183 21.931667,105.086113 21.287325,105.440422 
	C21.103674,107.778282 20.199308,110.352379 20.873430,112.409088 
	C22.786680,118.246292 24.002167,123.799637 21.255735,129.785538 
	C20.185682,132.117722 20.334608,135.009201 19.961067,137.433258 
	C22.827339,138.117783 24.889437,138.610245 27.273146,139.740082 
	C27.492998,140.372375 27.712852,141.004669 28.033279,141.926208 
	C17.656391,138.505463 12.459455,139.715103 8.978117,146.084213 
	C4.984350,153.390808 6.734822,161.138290 13.794204,166.742203 
	C14.404024,165.708939 14.997299,164.703705 15.807978,163.330093 
	C15.988240,164.687149 16.075724,165.345749 16.048767,166.734970 
	C19.753052,170.995728 23.341492,175.368408 27.259155,179.422989 
	C28.044714,180.235992 30.083158,179.976898 31.544155,179.978363 
	C60.507111,180.007233 89.470108,180.005600 118.433083,179.991302 
	C119.872643,179.990585 121.312119,179.818710 123.139542,179.701706 
	C122.877426,177.819107 123.013374,176.213638 122.405350,174.972687 
	C121.185715,172.483459 118.617004,170.300171 118.333214,167.794830 
	C117.954521,164.451874 119.220596,160.922623 119.774422,157.509293 
	C123.119736,155.304245 126.849770,154.113800 131.392014,156.705856 
	C136.900864,157.470566 142.389832,158.486771 147.924561,158.923874 
	C152.725677,159.303024 157.611694,158.673935 162.400742,159.123550 
	C169.223267,159.764038 173.221207,157.354156 174.947540,150.609344 
	C176.897537,142.990692 178.847610,135.369675 180.614746,127.707512 
	C181.630234,123.304527 181.616943,119.204948 176.598953,116.746124 
	C174.465698,115.700829 172.573029,113.726524 175.287399,111.267998 
	C179.340714,107.596710 180.547226,103.007614 179.999695,97.782440 
	C179.708618,95.004692 179.177567,92.243126 179.039185,89.460121 
	C178.707291,82.784653 175.786652,79.390121 169.132401,77.923172 
	C168.031357,77.680443 166.286682,76.674896 166.245712,75.943123 
	C166.067963,72.768951 163.897736,72.433548 161.595078,71.810303 
	C153.151443,69.524940 144.710068,69.509903 136.191895,71.368034 
	C133.109680,72.040398 131.708923,73.517441 131.948364,76.846016 
	C132.222519,80.657219 132.098724,84.505943 131.986130,88.333611 
	C131.870193,92.274780 133.423645,95.369743 137.137650,96.479919 
	C142.116379,97.968163 147.294647,98.788979 152.089050,99.831512 
	C153.612808,102.984512 155.187897,106.243744 156.868118,109.720520 
	C152.393494,109.863686 150.410721,111.916817 149.690369,116.339073 
	C148.744690,122.144699 146.748062,127.779129 145.203415,133.487183 
	C144.801544,133.425629 144.399689,133.364075 143.997818,133.302505 
	C143.997818,130.396362 144.048462,127.489159 143.987762,124.584282 
	C143.840103,117.516655 137.108337,109.497528 129.797882,107.433929 
	C129.381912,107.406425 128.965942,107.378922 128.549973,107.351418 
	C128.895950,107.742699 129.241913,108.133980 129.842117,109.284904 
	C132.159943,121.081184 131.598160,132.643372 126.655144,143.302856 
	C124.741341,142.348801 122.818237,141.412857 120.915527,140.437180 
	C115.933525,137.882462 111.080353,134.937622 105.067947,136.008652 
	C100.722328,136.782745 96.357452,137.448761 91.146141,138.037476 
M750.506958,135.999817 
	C753.670715,135.999817 756.840149,135.879608 759.996887,136.028809 
	C764.427368,136.238190 769.067505,135.951401 773.186890,137.247284 
	C775.460815,137.962616 778.376343,141.542725 778.282227,143.713440 
	C778.146484,146.844437 775.334778,149.204849 771.195312,149.077759 
	C762.877380,148.822372 754.546082,149.002335 746.220337,149.002472 
	C737.926819,149.002579 729.633362,149.002472 721.540344,149.002472 
	C719.875305,154.815170 718.359131,160.108215 716.679810,165.970535 
	C737.339172,165.970535 757.311340,166.456238 777.241516,165.752167 
	C786.312134,165.431732 793.635010,159.949814 796.687927,151.163818 
	C800.013550,141.593262 798.135559,132.549774 790.075317,125.622086 
	C784.005676,120.405312 776.420898,119.384583 768.854004,119.078201 
	C760.375549,118.734909 751.869690,118.866257 743.381592,119.054863 
	C739.433533,119.142593 736.888367,116.680458 736.731567,113.773308 
	C736.615234,111.615646 739.184204,108.762825 741.288635,107.213120 
	C742.918701,106.012772 745.679138,106.064110 747.940125,106.049873 
	C762.410583,105.958778 776.881897,106.003410 791.702820,106.003410 
	C793.294617,100.428268 794.829956,95.050697 796.706421,88.478539 
	C775.785400,89.021660 756.046753,89.131714 736.363037,90.227585 
	C727.516418,90.720108 718.087585,100.300255 717.018860,107.762970 
	C715.331055,119.547760 719.631714,129.233353 730.175354,133.295883 
	C736.089905,135.574753 743.032043,135.186432 750.506958,135.999817 
M990.997192,129.499756 
	C990.996277,134.663925 990.945251,139.828674 991.005127,144.992142 
	C991.118958,154.807327 996.120483,161.409103 1005.511047,163.668594 
	C1009.006104,164.509552 1012.683167,164.918793 1016.281982,164.947922 
	C1032.439819,165.078674 1048.599243,165.001785 1064.758179,164.999924 
	C1067.387695,164.999619 1070.017090,164.999878 1072.455811,164.999878 
	C1075.508301,156.052200 1074.067139,154.001007 1065.291870,154.000244 
	C1050.632202,153.998962 1035.972046,154.072357 1021.313477,153.940079 
	C1018.046997,153.910599 1014.669922,153.554855 1011.554871,152.634674 
	C1008.016235,151.589355 1004.922607,149.715225 1004.969482,145.092575 
	C1005.079285,134.265564 1004.793213,123.429123 1005.179871,112.614838 
	C1005.258911,110.404892 1007.084229,107.328949 1008.986267,106.328140 
	C1011.911438,104.789009 1015.592224,104.135590 1018.965210,104.091682 
	C1035.287964,103.879181 1051.616089,103.893646 1067.939575,104.072166 
	C1071.714355,104.113449 1073.557129,102.644180 1073.953491,99.129654 
	C1074.466187,94.582153 1072.151978,92.036072 1067.398804,92.022148 
	C1051.739746,91.976280 1036.078125,91.849586 1020.422852,92.097816 
	C1015.530273,92.175400 1010.475525,92.746567 1005.814087,94.150925 
	C998.882080,96.239319 992.340027,99.419098 991.868774,108.176613 
	C991.504456,114.947182 991.282471,121.725418 990.997192,129.499756 
M140.402603,46.820480 
	C143.504974,50.336056 148.222931,52.921120 146.680283,59.267517 
	C152.320984,54.561691 152.924881,51.511272 150.001862,45.027798 
	C146.845123,38.025902 147.200607,36.961422 152.013580,31.362261 
	C154.749344,28.179605 156.818756,24.424154 159.188248,20.926657 
	C158.788696,20.632040 158.389160,20.337423 157.989609,20.042807 
	C155.746597,21.668959 153.591156,23.438028 151.236069,24.881313 
	C148.852066,26.342304 146.285553,27.511255 143.772675,28.754984 
	C137.109146,32.053059 136.218994,40.986824 140.402603,46.820480 
M155.027161,58.467239 
	C163.644730,54.263931 163.887589,52.400406 157.035019,41.808308 
	C157.864655,40.743855 158.745499,39.613701 159.741837,38.335361 
	C153.061096,38.273987 150.290833,41.761192 152.730698,47.197372 
	C154.323334,50.745819 156.097626,54.037632 153.253738,57.725803 
	C153.218857,57.771046 153.995285,58.441872 155.027161,58.467239 
z"/>
<path fill="#B5906E" opacity="1.000000" stroke="none" 
	d="
M750.009094,135.999817 
	C743.032043,135.186432 736.089905,135.574753 730.175354,133.295883 
	C719.631714,129.233353 715.331055,119.547760 717.018860,107.762970 
	C718.087585,100.300255 727.516418,90.720108 736.363037,90.227585 
	C756.046753,89.131714 775.785400,89.021660 796.706421,88.478539 
	C794.829956,95.050697 793.294617,100.428268 791.702820,106.003410 
	C776.881897,106.003410 762.410583,105.958778 747.940125,106.049873 
	C745.679138,106.064110 742.918701,106.012772 741.288635,107.213120 
	C739.184204,108.762825 736.615234,111.615646 736.731567,113.773308 
	C736.888367,116.680458 739.433533,119.142593 743.381592,119.054863 
	C751.869690,118.866257 760.375549,118.734909 768.854004,119.078201 
	C776.420898,119.384583 784.005676,120.405312 790.075317,125.622086 
	C798.135559,132.549774 800.013550,141.593262 796.687927,151.163818 
	C793.635010,159.949814 786.312134,165.431732 777.241516,165.752167 
	C757.311340,166.456238 737.339172,165.970535 716.679810,165.970535 
	C718.359131,160.108215 719.875305,154.815170 721.540344,149.002472 
	C729.633362,149.002472 737.926819,149.002579 746.220337,149.002472 
	C754.546082,149.002335 762.877380,148.822372 771.195312,149.077759 
	C775.334778,149.204849 778.146484,146.844437 778.282227,143.713440 
	C778.376343,141.542725 775.460815,137.962616 773.186890,137.247284 
	C769.067505,135.951401 764.427368,136.238190 759.996887,136.028809 
	C756.840149,135.879608 753.670715,135.999817 750.009094,135.999817 
z"/>
<path fill="#BE9C7B" opacity="1.000000" stroke="none" 
	d="
M130.058899,107.927086 
	C137.108337,109.497528 143.840103,117.516655 143.987762,124.584282 
	C144.048462,127.489159 143.997818,130.396362 143.997818,133.302505 
	C144.399689,133.364075 144.801544,133.425629 145.203415,133.487183 
	C146.748062,127.779129 148.744690,122.144699 149.690369,116.339073 
	C150.410721,111.916817 152.393494,109.863686 156.868118,109.720520 
	C155.187897,106.243744 153.612808,102.984512 152.089050,99.831512 
	C147.294647,98.788979 142.116379,97.968163 137.137650,96.479919 
	C133.423645,95.369743 131.870193,92.274780 131.986130,88.333611 
	C132.098724,84.505943 132.222519,80.657219 131.948364,76.846016 
	C131.708923,73.517441 133.109680,72.040398 136.191895,71.368034 
	C144.710068,69.509903 153.151443,69.524940 161.595078,71.810303 
	C163.897736,72.433548 166.067963,72.768951 166.245712,75.943123 
	C166.286682,76.674896 168.031357,77.680443 169.132401,77.923172 
	C175.786652,79.390121 178.707291,82.784653 179.039185,89.460121 
	C179.177567,92.243126 179.708618,95.004692 179.999695,97.782440 
	C180.547226,103.007614 179.340714,107.596710 175.287399,111.267998 
	C172.573029,113.726524 174.465698,115.700829 176.598953,116.746124 
	C181.616943,119.204948 181.630234,123.304527 180.614746,127.707512 
	C178.847610,135.369675 176.897537,142.990692 174.947540,150.609344 
	C173.221207,157.354156 169.223267,159.764038 162.400742,159.123550 
	C157.611694,158.673935 152.725677,159.303024 147.924561,158.923874 
	C142.389832,158.486771 136.900864,157.470566 131.320496,156.056946 
	C131.082077,153.981445 131.210144,152.433975 130.685593,151.153946 
	C129.659622,148.650345 128.269348,146.296005 127.029892,143.879883 
	C131.598160,132.643372 132.159943,121.081184 129.833847,108.756393 
	C129.825577,108.227882 130.058899,107.927086 130.058899,107.927086 
M154.623093,75.048958 
	C154.088867,75.739090 153.117752,76.413605 153.092438,77.121925 
	C152.945251,81.238625 153.020416,85.363274 153.020416,89.588791 
	C155.793045,90.054359 158.133057,90.447281 160.998978,90.928513 
	C160.998978,87.105507 160.741226,83.620544 161.063477,80.190048 
	C161.476761,75.790459 159.465622,74.492622 154.623093,75.048958 
M173.011703,130.655792 
	C173.622650,128.650497 174.233582,126.645187 174.927734,124.366768 
	C172.753510,123.827957 170.792435,123.341965 168.831375,122.855972 
	C172.923981,125.348961 170.021591,126.973541 168.009308,128.629669 
	C169.411057,129.407913 170.516327,130.021561 172.137039,130.921387 
	C169.741867,132.368317 168.621216,133.045303 167.945587,133.453461 
	C171.603027,139.352982 166.420868,144.802811 168.047806,150.406998 
	C169.688324,144.097351 171.328842,137.787720 173.011703,130.655792 
z"/>
<path fill="#C2A386" opacity="1.000000" stroke="none" 
	d="
M92.027489,55.875515 
	C98.921875,57.226528 105.816261,58.577538 113.352829,60.054390 
	C111.921829,64.629402 110.697350,68.544189 109.368057,72.794037 
	C115.324165,74.830956 110.150940,78.643333 109.509972,81.725555 
	C108.788467,85.195030 105.738312,83.989548 103.359818,83.673309 
	C101.255547,83.393532 99.155411,83.082687 97.947517,82.911942 
	C97.947517,85.157135 97.947517,87.138206 97.947517,89.794289 
	C98.904800,90.232979 100.636322,91.026474 102.644836,92.326340 
	C102.286102,94.500000 101.650368,96.167313 101.014633,97.834618 
	C92.637161,95.371597 84.259689,92.908585 75.882217,90.445564 
	C75.760918,90.854973 75.639626,91.264374 75.518326,91.673775 
	C80.881340,93.548035 86.244347,95.422287 91.780365,97.947990 
	C90.277634,100.580330 88.906021,102.980698 86.866295,104.459534 
	C81.765846,108.157494 78.313255,114.376450 71.124298,114.599792 
	C74.689735,102.564507 65.259064,88.836708 52.640053,87.339851 
	C67.408066,97.404739 72.440971,106.011429 67.839256,116.545853 
	C60.348316,133.694397 46.558739,131.756378 32.079788,126.129295 
	C32.011295,126.545235 31.942804,126.961174 31.874311,127.377113 
	C34.259228,128.878250 36.644142,130.379395 38.874237,132.206421 
	C34.796787,134.722427 30.874161,136.912582 26.951532,139.102722 
	C24.889437,138.610245 22.827339,138.117783 19.961067,137.433258 
	C20.334608,135.009201 20.185682,132.117722 21.255735,129.785538 
	C24.002167,123.799637 22.786680,118.246292 20.873430,112.409088 
	C20.199308,110.352379 21.103674,107.778282 21.780293,105.528725 
	C23.006098,105.702438 23.738939,105.787857 24.471779,105.873268 
	C24.504305,105.711075 24.536833,105.548882 24.569359,105.386688 
	C23.843136,105.090134 23.116915,104.793587 22.390692,104.497040 
	C20.953760,96.310104 26.769650,92.065376 32.070606,88.149582 
	C38.311481,83.539482 45.698074,84.020592 53.309879,84.324692 
	C60.118706,84.596710 67.037231,82.123016 74.115265,80.195000 
	C78.711281,74.830566 83.376579,70.353249 87.375725,65.344093 
	C89.518242,62.660473 90.514145,59.061443 92.027489,55.875515 
M47.138031,113.300240 
	C49.305923,116.181709 51.798969,118.129349 55.468102,115.771599 
	C58.799007,113.631180 59.009827,110.387177 57.005836,107.607964 
	C55.837471,105.987633 52.928879,104.300880 51.223854,104.657120 
	C47.387844,105.458588 45.814369,108.535881 47.138031,113.300240 
z"/>
<path fill="#BE9A77" opacity="1.000000" stroke="none" 
	d="
M405.833374,130.992645 
	C400.909119,141.583649 395.903564,152.138168 391.120728,162.792648 
	C389.997192,165.295563 388.602509,166.101410 385.892090,166.061127 
	C374.899384,165.897812 363.899384,166.132492 352.911133,165.857285 
	C351.058258,165.810867 348.687805,164.408936 347.520050,162.891693 
	C342.811249,156.773743 338.522949,150.333801 333.962769,144.098038 
	C333.283600,143.169342 331.995026,142.129013 330.964905,142.103912 
	C323.845032,141.930496 316.718903,142.012604 309.144958,142.012604 
	C309.144958,150.048019 309.144958,157.639389 309.144958,165.609375 
	C302.995270,165.609375 297.291168,165.609375 290.999664,165.609375 
	C290.999664,156.395660 290.999695,147.284698 290.999603,138.173752 
	C290.999603,136.841003 290.953766,135.506485 291.006348,134.175827 
	C291.234161,128.411407 289.450226,121.093025 292.319366,117.328636 
	C295.101349,113.678604 302.674652,113.680428 308.803040,111.885300 
	C308.803040,116.284973 308.803040,120.317024 308.803040,124.976761 
	C320.651398,124.976761 331.920105,125.133194 343.175110,124.811386 
	C344.901794,124.762009 346.565491,122.508026 349.025543,121.129517 
	C356.140320,121.321915 362.487854,121.658455 368.835388,121.995003 
	C366.735626,131.249542 363.564362,135.298904 353.667969,140.917282 
	C359.135315,148.481323 364.562958,155.990433 370.377411,164.034714 
	C376.328644,152.304016 382.080231,140.966858 388.429871,129.313873 
	C394.629730,129.662933 400.231537,130.327789 405.833374,130.992645 
z"/>
<path fill="#C0A081" opacity="1.000000" stroke="none" 
	d="
M27.112339,139.421402 
	C30.874161,136.912582 34.796787,134.722427 39.297615,132.255981 
	C56.698532,135.823975 68.865990,127.009254 71.161263,115.006874 
	C78.313255,114.376450 81.765846,108.157494 86.866295,104.459534 
	C88.906021,102.980698 90.277634,100.580330 91.996078,98.243896 
	C92.965065,98.223297 93.885498,98.575523 94.818497,98.890594 
	C107.991844,103.339241 107.904121,103.338966 108.054001,117.345787 
	C108.103134,121.937088 108.740204,126.522102 109.149094,131.617065 
	C99.230904,133.829590 89.550758,135.989014 79.870613,138.148438 
	C79.911285,138.472168 79.951965,138.795883 79.992645,139.119614 
	C83.710472,138.758896 87.428307,138.398193 91.529068,138.438141 
	C88.488235,141.788864 85.320694,145.127243 81.579323,147.595978 
	C76.262032,151.104553 70.522781,153.973648 64.581421,157.073700 
	C61.989704,155.394180 59.166267,154.175751 57.702679,152.029846 
	C54.910671,147.936188 52.894135,143.313644 50.437847,138.688797 
	C47.076267,142.623581 44.228153,145.957321 41.090790,149.629639 
	C43.565350,153.286667 46.839386,158.125183 49.717728,163.014053 
	C43.936348,164.377335 38.550663,165.690262 32.927582,166.664429 
	C31.941191,166.214310 31.192198,166.102921 30.369186,165.920502 
	C30.295170,165.849487 30.010027,165.554504 30.200775,165.164154 
	C30.285545,164.206436 30.179567,163.639069 30.370201,162.873871 
	C31.527069,160.888214 32.470825,159.135147 33.231865,157.306030 
	C35.480194,151.902328 33.869282,145.955444 28.801991,143.178192 
	C32.944443,149.585510 32.793358,156.020599 29.363560,162.585114 
	C29.094334,163.424713 29.063696,164.154541 28.818287,165.193970 
	C24.456747,165.670471 20.309978,165.837402 16.163208,166.004333 
	C16.075724,165.345749 15.988240,164.687149 15.807978,163.330093 
	C14.997299,164.703705 14.404024,165.708939 13.794204,166.742203 
	C6.734822,161.138290 4.984350,153.390808 8.978117,146.084213 
	C12.459455,139.715103 17.656391,138.505463 28.033279,141.926208 
	C27.712852,141.004669 27.492998,140.372375 27.112339,139.421402 
z"/>
<path fill="#BF9E7D" opacity="1.000000" stroke="none" 
	d="
M33.164970,167.003189 
	C38.550663,165.690262 43.936348,164.377335 50.016014,163.164017 
	C54.894459,168.407211 59.078918,173.550797 63.500149,178.985428 
	C64.733345,175.098206 63.181030,170.536255 68.426689,169.432510 
	C68.795128,169.354996 69.169502,167.203461 68.834602,166.269791 
	C67.717796,163.156296 66.279137,160.158249 64.963814,157.115952 
	C70.522781,153.973648 76.262032,151.104553 81.579323,147.595978 
	C85.320694,145.127243 88.488235,141.788864 91.956589,138.500885 
	C96.357452,137.448761 100.722328,136.782745 105.067947,136.008652 
	C111.080353,134.937622 115.933525,137.882462 120.915527,140.437180 
	C122.818237,141.412857 124.741341,142.348801 126.842514,143.591370 
	C128.269348,146.296005 129.659622,148.650345 130.685593,151.153946 
	C131.210144,152.433975 131.082077,153.981445 131.097977,155.754486 
	C126.849770,154.113800 123.119736,155.304245 119.774422,157.509293 
	C119.220596,160.922623 117.954521,164.451874 118.333214,167.794830 
	C118.617004,170.300171 121.185715,172.483459 122.405350,174.972687 
	C123.013374,176.213638 122.877426,177.819107 123.139542,179.701706 
	C121.312119,179.818710 119.872643,179.990585 118.433083,179.991302 
	C89.470108,180.005600 60.507111,180.007233 31.544155,179.978363 
	C30.083158,179.976898 28.044714,180.235992 27.259155,179.422989 
	C23.341492,175.368408 19.753052,170.995728 16.105988,166.369659 
	C20.309978,165.837402 24.456747,165.670471 29.088982,165.322968 
	C29.719639,165.279770 29.864832,165.417130 30.010027,165.554504 
	C30.010027,165.554504 30.295170,165.849487 30.598476,166.121613 
	C31.656178,166.596893 32.410576,166.800049 33.164970,167.003189 
M107.957764,153.469543 
	C110.193344,153.856339 112.428917,154.243134 114.664497,154.629929 
	C114.804153,154.005127 114.943817,153.380325 115.083473,152.755524 
	C110.212074,151.450775 105.340683,150.146042 100.469284,148.841293 
	C100.229683,149.590149 99.990074,150.338989 99.750473,151.087845 
	C102.232201,151.764923 104.713928,152.441986 107.957764,153.469543 
M113.898979,162.473724 
	C109.804115,161.259216 105.709259,160.044693 101.204422,158.708588 
	C102.262321,162.861176 107.564781,164.459869 113.898979,162.473724 
M114.771614,173.919189 
	C114.146278,172.945038 113.687363,171.323212 112.865944,171.112152 
	C109.790375,170.321869 106.596252,169.992950 103.446579,169.491058 
	C103.172806,169.937057 102.899033,170.383072 102.625259,170.829086 
	C103.677185,171.550476 104.644402,172.666077 105.798065,172.913986 
	C108.478081,173.489868 111.248077,173.647049 114.771614,173.919189 
z"/>
<path fill="#C4A78B" opacity="1.000000" stroke="none" 
	d="
M990.997192,129.000000 
	C991.282471,121.725418 991.504456,114.947182 991.868774,108.176613 
	C992.340027,99.419098 998.882080,96.239319 1005.814087,94.150925 
	C1010.475525,92.746567 1015.530273,92.175400 1020.422852,92.097816 
	C1036.078125,91.849586 1051.739746,91.976280 1067.398804,92.022148 
	C1072.151978,92.036072 1074.466187,94.582153 1073.953491,99.129654 
	C1073.557129,102.644180 1071.714355,104.113449 1067.939575,104.072166 
	C1051.616089,103.893646 1035.287964,103.879181 1018.965210,104.091682 
	C1015.592224,104.135590 1011.911438,104.789009 1008.986267,106.328140 
	C1007.084229,107.328949 1005.258911,110.404892 1005.179871,112.614838 
	C1004.793213,123.429123 1005.079285,134.265564 1004.969482,145.092575 
	C1004.922607,149.715225 1008.016235,151.589355 1011.554871,152.634674 
	C1014.669922,153.554855 1018.046997,153.910599 1021.313477,153.940079 
	C1035.972046,154.072357 1050.632202,153.998962 1065.291870,154.000244 
	C1074.067139,154.001007 1075.508301,156.052200 1072.455811,164.999878 
	C1070.017090,164.999878 1067.387695,164.999619 1064.758179,164.999924 
	C1048.599243,165.001785 1032.439819,165.078674 1016.281982,164.947922 
	C1012.683167,164.918793 1009.006104,164.509552 1005.511047,163.668594 
	C996.120483,161.409103 991.118958,154.807327 991.005127,144.992142 
	C990.945251,139.828674 990.996277,134.663925 990.997192,129.000000 
z"/>
<path fill="#BC9876" opacity="1.000000" stroke="none" 
	d="
M201.168335,119.000931 
	C201.984253,117.998375 202.615173,116.425835 203.647736,116.090668 
	C208.444778,114.533577 213.353088,113.319260 218.639923,111.867378 
	C218.865433,114.280937 219.058670,116.349060 219.304260,118.977287 
	C231.334732,118.977287 243.287842,119.234734 255.207657,118.720184 
	C257.161377,118.635857 259.881836,115.409111 260.515625,113.148956 
	C260.924530,111.690720 258.576569,108.661201 256.734009,107.579773 
	C254.616943,106.337234 251.697433,106.089554 249.120285,106.065239 
	C234.962692,105.931602 220.803177,105.998627 206.644333,105.996864 
	C204.860596,105.996635 203.076874,105.996841 200.639954,105.996841 
	C202.376099,99.988373 203.907089,94.689903 205.258057,90.014488 
	C223.781647,90.014488 242.136047,88.714127 260.212280,90.398712 
	C276.627655,91.928520 283.070374,105.215065 278.870636,118.277969 
	C277.768829,121.704994 274.806915,124.533981 272.628326,127.742050 
	C274.136566,129.084366 275.949036,130.697403 277.622253,132.920746 
	C272.390656,133.997406 267.303406,134.548691 262.201508,134.857254 
	C261.201294,134.917740 260.172699,133.950012 259.108063,133.610641 
	C256.253967,132.700836 253.419495,131.422546 250.492081,131.123001 
	C246.291809,130.693237 242.007217,131.171265 237.774658,130.952087 
	C232.328445,130.670029 226.698929,130.824188 221.512360,129.433197 
	C215.312210,127.770363 209.496704,124.673195 202.707611,121.863289 
	C202.639709,121.737022 201.904022,120.368980 201.168335,119.000931 
z"/>
<path fill="#BE9A77" opacity="1.000000" stroke="none" 
	d="
M201.102875,119.465530 
	C201.904022,120.368980 202.639709,121.737022 202.707611,121.863289 
	C209.496704,124.673195 215.312210,127.770363 221.512360,129.433197 
	C226.698929,130.824188 232.328445,130.670029 237.774658,130.952087 
	C242.007217,131.171265 246.291809,130.693237 250.492081,131.123001 
	C253.419495,131.422546 256.253967,132.700836 259.108063,133.610641 
	C260.172699,133.950012 261.201294,134.917740 262.201508,134.857254 
	C267.303406,134.548691 272.390656,133.997406 277.770294,133.220001 
	C288.068512,147.029846 279.513733,164.331985 262.017029,165.634109 
	C242.019135,167.122391 221.825378,165.978760 201.037399,165.978760 
	C201.037399,150.403397 201.037399,135.166763 201.102875,119.465530 
M226.573730,149.004227 
	C235.544434,149.003693 244.518005,148.868393 253.484634,149.059174 
	C258.002777,149.155319 261.403412,147.674347 262.747803,143.320175 
	C263.556702,140.700363 259.005585,136.277908 254.751419,136.166245 
	C243.014053,135.858154 231.263306,136.059692 219.349045,136.059692 
	C219.349045,140.577423 219.349045,144.606918 219.349045,149.004333 
	C221.663345,149.004333 223.629913,149.004333 226.573730,149.004227 
z"/>
<path fill="#B5906E" opacity="1.000000" stroke="none" 
	d="
M623.166870,112.999176 
	C627.495056,99.333092 637.977356,92.125397 650.942871,89.339806 
	C665.439392,86.225288 680.150391,86.588028 693.672607,94.300110 
	C704.705872,100.592651 710.263245,110.328697 710.955933,122.822929 
	C711.507324,132.767334 711.350098,142.669510 704.939148,151.178802 
	C704.246155,152.098679 703.425720,152.922562 702.205444,153.628723 
	C699.468567,151.983612 697.193298,150.496841 694.912170,149.018936 
	C692.264832,147.303726 689.612427,145.596313 687.115723,143.568726 
	C688.624512,139.280304 690.244629,135.376419 691.281860,131.323334 
	C693.672546,121.981789 689.222717,111.532417 680.404663,108.061195 
	C675.098328,105.972351 668.998108,105.320488 663.219421,105.137947 
	C652.889771,104.811630 643.525208,109.343811 640.491821,120.950912 
	C634.488831,118.270950 628.827881,115.635063 623.166870,112.999176 
z"/>
<path fill="#BE9A77" opacity="1.000000" stroke="none" 
	d="
M445.105377,130.951248 
	C449.907135,140.579559 454.708893,150.207855 460.020325,160.858170 
	C465.697937,149.514206 471.001373,138.917831 476.943817,128.286972 
	C482.667053,129.831055 487.751282,131.409622 492.835541,132.988190 
	C488.225220,142.979019 483.727142,153.024933 478.881104,162.900085 
	C478.170288,164.348602 475.829529,165.813354 474.201538,165.861206 
	C464.727295,166.139633 455.240387,165.956970 445.758423,166.023483 
	C443.224365,166.041245 441.449768,165.797119 440.725250,162.674072 
	C439.556824,157.637619 436.553497,155.417480 430.780151,155.823517 
	C421.516571,156.475037 412.173645,155.998184 402.047577,155.998184 
	C404.193298,150.943832 405.972290,146.243164 408.240265,141.791626 
	C408.766846,140.758102 410.944763,140.127487 412.389282,140.077621 
	C418.001129,139.883835 423.623596,139.998703 429.577087,139.998703 
	C427.937378,136.008560 426.454254,132.399353 425.339569,128.408524 
	C427.613342,128.440704 429.501831,128.975021 431.427368,129.244217 
	C435.977325,129.880310 440.544922,130.390289 445.105377,130.951248 
z"/>
<path fill="#B89371" opacity="1.000000" stroke="none" 
	d="
M622.974976,113.351273 
	C628.827881,115.635063 634.488831,118.270950 640.557983,121.370094 
	C640.978821,126.022560 640.807922,130.222260 641.046936,134.398499 
	C641.409790,140.741058 645.116211,145.297546 650.403992,147.997528 
	C659.629578,152.708160 677.762024,153.221191 686.962219,143.885498 
	C689.612427,145.596313 692.264832,147.303726 694.912170,149.018936 
	C697.193298,150.496841 699.468567,151.983612 701.898071,153.785065 
	C698.814697,159.960587 693.030090,162.796631 687.297424,164.667847 
	C670.413208,170.179123 653.482788,170.394272 637.667664,161.136932 
	C627.241699,155.034210 621.502136,145.378113 621.140320,133.255371 
	C620.946472,126.760162 622.188904,120.222099 622.974976,113.351273 
z"/>
<path fill="#C4A78B" opacity="1.000000" stroke="none" 
	d="
M91.797874,55.579796 
	C90.514145,59.061443 89.518242,62.660473 87.375725,65.344093 
	C83.376579,70.353249 78.711281,74.830566 74.131149,79.813019 
	C72.667282,79.380875 71.460876,78.493050 70.111961,77.979637 
	C65.128357,76.082817 60.487019,74.082275 61.901352,67.226273 
	C62.088345,66.319839 61.214844,65.119759 60.666073,64.149834 
	C58.665630,60.614155 57.274757,57.125511 58.978825,52.916588 
	C59.567047,51.463711 59.308369,49.408909 58.814636,47.822636 
	C56.857296,41.534027 54.546509,35.354713 52.627705,29.055397 
	C52.220757,27.719418 52.519737,25.816256 53.233845,24.614279 
	C53.712952,23.807854 55.497360,23.776920 56.697731,23.399006 
	C57.131721,24.912928 57.533558,26.436947 58.005272,27.939028 
	C60.064346,34.495823 62.143711,41.046249 64.020317,46.981049 
	C67.631897,47.553200 70.690643,48.037769 73.749382,48.522339 
	C73.826210,48.201157 73.903038,47.879978 73.979866,47.558800 
	C71.174049,46.834625 68.368225,46.110447 64.667236,45.155231 
	C65.347717,43.401093 65.542656,41.042461 66.823250,39.884995 
	C79.422104,28.497568 93.969765,28.852083 108.375458,34.843586 
	C109.709831,35.398563 111.034996,36.915268 111.564407,38.292870 
	C113.268890,42.728214 114.598709,47.307545 116.255516,52.391411 
	C106.342583,57.159012 98.512138,49.222385 89.342613,48.925373 
	C89.004677,51.160690 85.215057,54.591068 91.797874,55.579796 
M105.002632,43.418518 
	C105.971291,44.624722 106.939957,45.830925 107.908623,47.037132 
	C106.662422,37.774334 106.437218,37.414371 102.286537,36.702305 
	C103.181351,38.768818 104.030380,40.729595 105.002632,43.418518 
M77.221664,51.659515 
	C76.970978,51.268391 76.720284,50.877270 75.715569,49.309746 
	C76.446396,52.524338 76.882896,54.444305 77.319397,56.364273 
	C77.534492,56.344765 77.749580,56.325260 77.964668,56.305756 
	C77.859840,54.952789 77.755013,53.599827 77.221664,51.659515 
z"/>
<path fill="#BF9E7D" opacity="1.000000" stroke="none" 
	d="
M927.048523,104.093567 
	C926.007935,104.425392 924.929016,104.669502 923.933777,105.104919 
	C920.480042,106.615852 917.573486,108.443481 917.943542,113.023277 
	C918.219788,116.442291 917.998047,119.901543 917.998047,124.049477 
	C924.282654,124.049477 930.170349,124.049477 936.526855,124.507484 
	C937.659424,128.255981 938.323120,131.546463 938.986816,134.836945 
	C932.204956,134.836929 925.423096,134.836929 918.029846,134.836929 
	C918.029846,139.344955 917.504150,143.382141 918.252930,147.167206 
	C918.624084,149.043030 921.154663,151.566650 923.027649,151.878418 
	C929.966248,153.033386 937.037842,153.389694 944.534058,154.465454 
	C946.334900,158.204071 947.661133,161.523270 948.987366,164.842468 
	C939.235718,164.566498 929.430054,164.833420 919.746704,163.870560 
	C908.829590,162.785004 903.027710,155.455414 902.996033,144.341629 
	C902.967590,134.361145 902.942749,124.380203 903.007751,114.400055 
	C903.099365,100.335762 909.526611,94.999863 924.584473,93.510834 
	C925.683167,97.346039 926.365845,100.719803 927.048523,104.093567 
z"/>
<path fill="#BA9674" opacity="1.000000" stroke="none" 
	d="
M368.896881,121.537033 
	C362.487854,121.658455 356.140320,121.321915 349.338806,120.973244 
	C349.206848,118.870361 349.963989,116.736771 349.763123,114.697510 
	C349.298920,109.983307 345.602875,107.011086 340.730072,107.005150 
	C326.096252,106.987312 311.462463,106.997810 296.828644,106.997269 
	C295.031311,106.997200 293.234009,106.997253 290.521088,106.997253 
	C292.245483,100.940399 293.778870,95.554512 295.359314,90.003365 
	C312.666779,90.003365 329.624542,89.639435 346.557861,90.126076 
	C358.673340,90.474274 368.852417,101.922356 368.991058,114.095314 
	C369.017548,116.422813 368.971130,118.751129 368.896881,121.537033 
z"/>
<path fill="#B89574" opacity="1.000000" stroke="none" 
	d="
M869.991760,103.835014 
	C866.614380,103.607063 866.983032,105.957115 866.985229,108.130524 
	C867.002197,124.932518 866.999512,141.734543 866.997803,158.536545 
	C866.997131,164.761993 865.960693,165.962784 860.595398,166.001114 
	C855.166931,166.039856 853.019287,163.844131 853.008423,158.009583 
	C852.976624,141.041275 852.999939,124.072868 852.989624,107.104515 
	C852.989136,106.295639 852.873901,105.486832 852.761047,104.009850 
	C843.902832,104.009850 835.153137,104.026291 826.403503,104.003906 
	C820.839478,103.989670 820.115173,103.053741 819.933044,97.714180 
	C819.762390,92.713997 822.817749,91.996460 826.640320,91.996948 
	C840.447754,91.998703 854.255188,92.026077 868.531555,92.514420 
	C869.330872,96.601707 869.661316,100.218361 869.991760,103.835014 
z"/>
<path fill="#B89574" opacity="1.000000" stroke="none" 
	d="
M493.003448,132.667175 
	C487.751282,131.409622 482.667053,129.831055 477.238220,128.101242 
	C482.194946,116.800232 487.462891,105.634262 492.853088,94.527634 
	C493.351837,93.499931 494.496368,92.453819 495.567871,92.096573 
	C499.134857,90.907288 502.911804,90.305862 506.410309,88.963249 
	C511.285187,87.092407 513.757751,88.661469 515.830688,93.328423 
	C521.640930,106.409218 527.907837,119.287132 533.610291,132.616455 
	C526.538513,131.657394 519.851074,130.326996 513.163574,128.996597 
	C510.014648,122.875008 506.865692,116.753426 503.551880,110.311386 
	C500.015472,117.818123 496.593414,125.082146 493.003448,132.667175 
z"/>
<path fill="#BA9674" opacity="1.000000" stroke="none" 
	d="
M445.045837,130.589478 
	C440.544922,130.390289 435.977325,129.880310 431.427368,129.244217 
	C429.501831,128.975021 427.613342,128.440704 425.295410,128.030975 
	C421.756958,122.160721 418.631104,116.286377 415.473602,110.352562 
	C412.343140,117.082993 409.258759,123.714287 406.003906,130.669113 
	C400.231537,130.327789 394.629730,129.662933 388.596527,128.996307 
	C393.438263,118.013206 398.590759,106.970642 404.102661,96.110481 
	C405.025909,94.291367 407.311768,92.769669 409.311432,91.976959 
	C412.943298,90.537224 416.949402,90.041603 420.581268,88.601868 
	C423.925201,87.276260 425.434113,88.488617 426.760010,91.346916 
	C432.783203,104.331421 438.901947,117.271576 445.045837,130.589478 
z"/>
<path fill="#BA9674" opacity="1.000000" stroke="none" 
	d="
M596.779724,135.394669 
	C592.642334,144.326859 588.569824,153.290436 584.283508,162.150604 
	C583.761292,163.229950 582.192566,164.101425 580.932922,164.473419 
	C575.786133,165.993362 570.571045,167.281937 564.925049,168.776443 
	C561.893066,162.688721 558.809631,156.734009 555.939514,150.678177 
	C551.868225,142.087891 547.954102,133.423111 544.327515,124.407440 
	C551.733032,126.014931 558.783875,128.005157 565.834717,129.995392 
	C568.391174,135.202560 570.947693,140.409729 573.795471,146.210159 
	C576.462463,140.230591 578.899658,134.766342 581.856995,129.387299 
	C587.178040,131.446548 591.978882,133.420609 596.779724,135.394669 
z"/>
<path fill="#BC9876" opacity="1.000000" stroke="none" 
	d="
M513.113403,129.360306 
	C519.851074,130.326996 526.538513,131.657394 533.674927,132.978165 
	C539.434570,143.659836 544.745361,154.351151 550.511230,165.958679 
	C543.675110,165.958679 537.637146,166.060730 531.610352,165.847855 
	C530.714050,165.816193 529.321716,164.430557 529.091309,163.451782 
	C527.624756,157.222809 523.951111,155.403625 517.647949,155.841583 
	C508.721527,156.461792 499.719849,155.998856 490.025238,155.998856 
	C492.188416,150.914261 493.983704,146.180466 496.274628,141.700119 
	C496.795013,140.682434 499.019440,140.122711 500.483398,140.074295 
	C506.070709,139.889496 511.667725,139.999680 517.774536,139.999680 
	C516.047058,136.231918 514.555176,132.977966 513.113403,129.360306 
z"/>
<path fill="#B89371" opacity="1.000000" stroke="none" 
	d="
M597.041382,135.211243 
	C591.978882,133.420609 587.178040,131.446548 582.159668,129.186432 
	C586.839966,118.189888 592.313599,107.693687 596.408997,96.684738 
	C598.689697,90.553978 602.094727,89.375732 607.690735,89.920906 
	C611.467346,90.288818 615.308777,89.991043 620.064209,89.991043 
	C612.309998,105.334030 604.806580,120.180916 597.041382,135.211243 
z"/>
<path fill="#B89371" opacity="1.000000" stroke="none" 
	d="
M565.771729,129.648407 
	C558.783875,128.005157 551.733032,126.014931 544.282715,124.029732 
	C538.332947,112.926567 532.782532,101.818375 526.879822,90.005074 
	C533.428101,90.005074 539.175232,89.764259 544.875549,90.174362 
	C546.301147,90.276917 548.093628,92.222420 548.837769,93.749588 
	C554.583313,105.540833 560.112549,117.437477 565.771729,129.648407 
z"/>
<path fill="#BF9E7D" opacity="1.000000" stroke="none" 
	d="
M101.391754,97.912384 
	C101.650368,96.167313 102.286102,94.500000 102.965042,92.499092 
	C107.216461,93.455551 111.442184,94.692917 115.618256,96.079765 
	C116.462219,96.360039 117.684982,97.132973 117.771202,97.802628 
	C118.443382,103.023499 121.050613,106.581779 125.939613,108.635277 
	C126.827202,109.008072 127.844872,110.380226 127.863754,111.310089 
	C128.056412,120.798988 128.787888,130.372070 124.989265,139.779770 
	C123.898857,139.327576 123.043129,138.927246 122.157028,138.612381 
	C114.508675,135.894623 110.568939,131.348190 111.781021,122.412323 
	C112.608276,116.313515 111.470375,109.917267 110.888626,103.684105 
	C110.771584,102.429970 109.438629,100.874229 108.248138,100.228798 
	C106.266342,99.154343 103.946419,98.703560 101.391754,97.912384 
z"/>
<path fill="#C2A386" opacity="1.000000" stroke="none" 
	d="
M939.452515,134.903381 
	C938.323120,131.546463 937.659424,128.255981 936.991333,124.564499 
	C951.643494,124.112556 966.303162,124.213112 980.954895,123.920448 
	C985.486450,123.829933 985.411865,127.205376 985.413513,129.527084 
	C985.415100,131.864746 985.423645,135.183670 980.896912,135.090378 
	C967.242310,134.808899 953.578491,134.976990 939.452515,134.903381 
z"/>
<path fill="#C2A386" opacity="1.000000" stroke="none" 
	d="
M949.453125,164.908127 
	C947.661133,161.523270 946.334900,158.204071 944.997986,154.521942 
	C956.940247,154.107300 968.895081,154.162582 980.845215,153.947968 
	C985.245483,153.868958 985.011841,156.551880 985.028137,159.522018 
	C985.044678,162.533966 985.166504,165.140198 980.804260,165.057983 
	C970.512268,164.864044 960.214355,164.981995 949.453125,164.908127 
z"/>
<path fill="#BE9A77" opacity="1.000000" stroke="none" 
	d="
M870.456909,103.902115 
	C869.661316,100.218361 869.330872,96.601707 868.996094,92.574921 
	C877.646362,92.112450 886.300964,92.037857 894.955627,92.017372 
	C899.148865,92.007446 901.227844,93.756165 901.092957,98.364365 
	C900.963257,102.798660 898.987549,104.123901 894.896545,104.039787 
	C886.907898,103.875542 878.913818,103.977478 870.456909,103.902115 
z"/>
<path fill="#BF9E7D" opacity="1.000000" stroke="none" 
	d="
M140.224365,46.480370 
	C136.218994,40.986824 137.109146,32.053059 143.772675,28.754984 
	C146.285553,27.511255 148.852066,26.342304 151.236069,24.881313 
	C153.591156,23.438028 155.746597,21.668959 157.989609,20.042807 
	C158.389160,20.337423 158.788696,20.632040 159.188248,20.926657 
	C156.818756,24.424154 154.749344,28.179605 152.013580,31.362261 
	C147.200607,36.961422 146.845123,38.025902 150.001862,45.027798 
	C152.924881,51.511272 152.320984,54.561691 146.680283,59.267517 
	C148.222931,52.921120 143.504974,50.336056 140.224365,46.480370 
z"/>
<path fill="#C0A081" opacity="1.000000" stroke="none" 
	d="
M927.512329,104.057701 
	C926.365845,100.719803 925.683167,97.346039 924.997314,93.570450 
	C931.905029,92.783035 938.812073,92.231628 945.728271,92.068962 
	C950.506653,91.956581 952.007935,93.961143 952.019592,98.849762 
	C952.029846,103.165596 949.612732,104.097778 945.913696,104.024239 
	C939.936829,103.905418 933.955566,104.011009 927.512329,104.057701 
z"/>
<path fill="#BF9E7D" opacity="1.000000" stroke="none" 
	d="
M154.710083,58.643967 
	C153.995285,58.441872 153.218857,57.771046 153.253738,57.725803 
	C156.097626,54.037632 154.323334,50.745819 152.730698,47.197372 
	C150.290833,41.761192 153.061096,38.273987 159.741837,38.335361 
	C158.745499,39.613701 157.864655,40.743855 157.035019,41.808308 
	C163.887589,52.400406 163.644730,54.263931 154.710083,58.643967 
z"/>
<path fill="#BE9C7B" opacity="1.000000" stroke="none" 
	d="
M129.706726,108.376572 
	C129.241913,108.133980 128.895950,107.742699 128.549973,107.351418 
	C128.965942,107.378922 129.381912,107.406425 129.928391,107.680511 
	C130.058899,107.927086 129.825577,108.227882 129.706726,108.376572 
z"/>
<path fill="#FFFFFF" opacity="1.000000" stroke="none" 
	d="
M155.072845,75.027893 
	C159.465622,74.492622 161.476761,75.790459 161.063477,80.190048 
	C160.741226,83.620544 160.998978,87.105507 160.998978,90.928513 
	C158.133057,90.447281 155.793045,90.054359 153.020416,89.588791 
	C153.020416,85.363274 152.945251,81.238625 153.092438,77.121925 
	C153.117752,76.413605 154.088867,75.739090 155.072845,75.027893 
z"/>
<path fill="#FFFFFF" opacity="1.000000" stroke="none" 
	d="
M172.990524,131.066925 
	C171.328842,137.787720 169.688324,144.097351 168.047806,150.406998 
	C166.420868,144.802811 171.603027,139.352982 167.945587,133.453461 
	C168.621216,133.045303 169.741867,132.368317 172.137039,130.921387 
	C170.516327,130.021561 169.411057,129.407913 168.009308,128.629669 
	C170.021591,126.973541 172.923981,125.348961 168.831375,122.855972 
	C170.792435,123.341965 172.753510,123.827957 174.927734,124.366768 
	C174.233582,126.645187 173.622650,128.650497 172.990524,131.066925 
z"/>
<path fill="#FFFFFF" opacity="1.000000" stroke="none" 
	d="
M71.124298,114.599792 
	C68.865990,127.009254 56.698532,135.823975 39.452438,131.930099 
	C36.644142,130.379395 34.259228,128.878250 31.874311,127.377113 
	C31.942804,126.961174 32.011295,126.545235 32.079788,126.129295 
	C46.558739,131.756378 60.348316,133.694397 67.839256,116.545853 
	C72.440971,106.011429 67.408066,97.404739 52.640053,87.339851 
	C65.259064,88.836708 74.689735,102.564507 71.124298,114.599792 
z"/>
<path fill="#FFFFFF" opacity="1.000000" stroke="none" 
	d="
M47.075340,112.936646 
	C45.814369,108.535881 47.387844,105.458588 51.223854,104.657120 
	C52.928879,104.300880 55.837471,105.987633 57.005836,107.607964 
	C59.009827,110.387177 58.799007,113.631180 55.468102,115.771599 
	C51.798969,118.129349 49.305923,116.181709 47.075340,112.936646 
z"/>
<path fill="#FFFFFF" opacity="1.000000" stroke="none" 
	d="
M22.276321,104.644608 
	C23.116915,104.793587 23.843136,105.090134 24.569359,105.386688 
	C24.536833,105.548882 24.504305,105.711075 24.471779,105.873268 
	C23.738939,105.787857 23.006098,105.702438 22.102463,105.351570 
	C21.931667,105.086113 22.161951,104.792183 22.276321,104.644608 
z"/>
<path fill="#FFFFFF" opacity="1.000000" stroke="none" 
	d="
M64.581421,157.073700 
	C66.279137,160.158249 67.717796,163.156296 68.834602,166.269791 
	C69.169502,167.203461 68.795128,169.354996 68.426689,169.432510 
	C63.181030,170.536255 64.733345,175.098206 63.500149,178.985428 
	C59.078918,173.550797 54.894459,168.407211 50.411709,163.113663 
	C46.839386,158.125183 43.565350,153.286667 41.090790,149.629639 
	C44.228153,145.957321 47.076267,142.623581 50.437847,138.688797 
	C52.894135,143.313644 54.910671,147.936188 57.702679,152.029846 
	C59.166267,154.175751 61.989704,155.394180 64.581421,157.073700 
z"/>
<path fill="#FFFFFF" opacity="1.000000" stroke="none" 
	d="
M29.602150,162.475342 
	C32.793358,156.020599 32.944443,149.585510 28.801991,143.178192 
	C33.869282,145.955444 35.480194,151.902328 33.231865,157.306030 
	C32.470825,159.135147 31.527069,160.888214 30.250687,162.725983 
	C29.834560,162.775940 29.602150,162.475342 29.602150,162.475342 
z"/>
<path fill="#FFFFFF" opacity="1.000000" stroke="none" 
	d="
M30.200775,165.164154 
	C29.864832,165.417130 29.719639,165.279770 29.303753,165.013397 
	C29.063696,164.154541 29.094334,163.424713 29.363560,162.585114 
	C29.602150,162.475342 29.834560,162.775940 29.954075,162.923813 
	C30.179567,163.639069 30.285545,164.206436 30.200775,165.164154 
z"/>
<path fill="#FFFFFF" opacity="1.000000" stroke="none" 
	d="
M32.927578,166.664429 
	C32.410576,166.800049 31.656178,166.596893 30.672493,166.192627 
	C31.192198,166.102921 31.941191,166.214310 32.927578,166.664429 
z"/>
<path fill="#FFFFFF" opacity="1.000000" stroke="none" 
	d="
M107.576706,153.294312 
	C104.713928,152.441986 102.232201,151.764923 99.750473,151.087845 
	C99.990074,150.338989 100.229683,149.590149 100.469284,148.841293 
	C105.340683,150.146042 110.212074,151.450775 115.083473,152.755524 
	C114.943817,153.380325 114.804153,154.005127 114.664497,154.629929 
	C112.428917,154.243134 110.193344,153.856339 107.576706,153.294312 
z"/>
<path fill="#FFFFFF" opacity="1.000000" stroke="none" 
	d="
M113.832092,162.880127 
	C107.564781,164.459869 102.262321,162.861176 101.204422,158.708588 
	C105.709259,160.044693 109.804115,161.259216 113.832092,162.880127 
z"/>
<path fill="#FFFFFF" opacity="1.000000" stroke="none" 
	d="
M114.376602,173.946564 
	C111.248077,173.647049 108.478081,173.489868 105.798065,172.913986 
	C104.644402,172.666077 103.677185,171.550476 102.625259,170.829086 
	C102.899033,170.383072 103.172806,169.937057 103.446579,169.491058 
	C106.596252,169.992950 109.790375,170.321869 112.865944,171.112152 
	C113.687363,171.323212 114.146278,172.945038 114.376602,173.946564 
z"/>
<path fill="#FFFFFF" opacity="1.000000" stroke="none" 
	d="
M226.085114,149.004272 
	C223.629913,149.004333 221.663345,149.004333 219.349045,149.004333 
	C219.349045,144.606918 219.349045,140.577423 219.349045,136.059692 
	C231.263306,136.059692 243.014053,135.858154 254.751419,136.166245 
	C259.005585,136.277908 263.556702,140.700363 262.747803,143.320175 
	C261.403412,147.674347 258.002777,149.155319 253.484634,149.059174 
	C244.518005,148.868393 235.544434,149.003693 226.085114,149.004272 
z"/>
<path fill="#FFFFFF" opacity="1.000000" stroke="none" 
	d="
M687.115723,143.568726 
	C677.762024,153.221191 659.629578,152.708160 650.403992,147.997528 
	C645.116211,145.297546 641.409790,140.741058 641.046936,134.398499 
	C640.807922,130.222260 640.978821,126.022560 640.899963,121.414169 
	C643.525208,109.343811 652.889771,104.811630 663.219421,105.137947 
	C668.998108,105.320488 675.098328,105.972351 680.404663,108.061195 
	C689.222717,111.532417 693.672546,121.981789 691.281860,131.323334 
	C690.244629,135.376419 688.624512,139.280304 687.115723,143.568726 
z"/>
<path fill="#FFFFFF" opacity="1.000000" stroke="none" 
	d="
M104.941025,43.054443 
	C104.030380,40.729595 103.181351,38.768818 102.286537,36.702305 
	C106.437218,37.414371 106.662422,37.774334 107.908623,47.037132 
	C106.939957,45.830925 105.971291,44.624722 104.941025,43.054443 
z"/>
<path fill="#FFFFFF" opacity="1.000000" stroke="none" 
	d="
M77.435928,51.953190 
	C77.755013,53.599827 77.859840,54.952789 77.964668,56.305756 
	C77.749580,56.325260 77.534492,56.344765 77.319397,56.364273 
	C76.882896,54.444305 76.446396,52.524338 75.715569,49.309746 
	C76.720284,50.877270 76.970978,51.268391 77.435928,51.953190 
z"/>
</svg>